<svg width="8" height="9" viewBox="0 0 8 9" fill="none" xmlns="http://www.w3.org/2000/svg">
<path d="M7.64052 7.60965C7.67536 7.64449 7.703 7.68586 7.72186 7.73138C7.74071 7.7769 7.75042 7.82569 7.75042 7.87496C7.75042 7.92424 7.74071 7.97303 7.72186 8.01855C7.703 8.06407 7.67536 8.10544 7.64052 8.14028C7.60568 8.17512 7.56432 8.20276 7.5188 8.22161C7.47327 8.24047 7.42448 8.25017 7.37521 8.25017C7.32594 8.25017 7.27714 8.24047 7.23162 8.22161C7.1861 8.20276 7.14474 8.17512 7.1099 8.14028L4.00021 5.03012L0.890521 8.14028C0.820156 8.21064 0.72472 8.25017 0.625208 8.25017C0.525697 8.25017 0.430261 8.21064 0.359896 8.14028C0.289531 8.06991 0.25 7.97448 0.25 7.87496C0.25 7.77545 0.289531 7.68002 0.359896 7.60965L3.47005 4.49996L0.359896 1.39028C0.289531 1.31991 0.25 1.22448 0.25 1.12496C0.25 1.02545 0.289531 0.930017 0.359896 0.859652C0.430261 0.789287 0.525697 0.749756 0.625208 0.749756C0.72472 0.749756 0.820156 0.789287 0.890521 0.859652L4.00021 3.96981L7.1099 0.859652C7.18026 0.789287 7.2757 0.749756 7.37521 0.749756C7.47472 0.749756 7.57016 0.789287 7.64052 0.859652C7.71089 0.930017 7.75042 1.02545 7.75042 1.12496C7.75042 1.22448 7.71089 1.31991 7.64052 1.39028L4.53036 4.49996L7.64052 7.60965Z" fill="#171959"/>
</svg>
