<svg width="15" height="18" viewBox="0 0 15 18" fill="none" xmlns="http://www.w3.org/2000/svg">
<path d="M14.3797 8.55781C14.4378 8.61586 14.4839 8.68479 14.5153 8.76066C14.5468 8.83653 14.563 8.91786 14.563 9C14.563 9.08213 14.5468 9.16346 14.5153 9.23934C14.4839 9.31521 14.4378 9.38414 14.3797 9.44219L7.96949 15.8484C7.14888 16.669 6.03592 17.1299 4.87547 17.1298C3.71501 17.1297 2.60212 16.6687 1.7816 15.848C0.96109 15.0274 0.500171 13.9145 0.500244 12.754C0.500317 11.5936 0.961376 10.4807 1.78199 9.66015L9.53668 1.7914C10.1225 1.20492 10.9174 0.875196 11.7464 0.874756C12.5753 0.874317 13.3705 1.2032 13.957 1.78906C14.5435 2.37492 14.8732 3.16976 14.8736 3.99873C14.8741 4.8277 14.5452 5.62289 13.9593 6.20937L6.20309 14.0781C5.85085 14.4304 5.37311 14.6283 4.87496 14.6283C4.37682 14.6283 3.89908 14.4304 3.54684 14.0781C3.1946 13.7259 2.99671 13.2481 2.99671 12.75C2.99671 12.2519 3.1946 11.7741 3.54684 11.4219L10.0547 4.81094C10.1117 4.75012 10.1803 4.70133 10.2564 4.66742C10.3326 4.63351 10.4147 4.61518 10.4981 4.6135C10.5814 4.61183 10.6642 4.62684 10.7417 4.65765C10.8191 4.68847 10.8896 4.73446 10.949 4.79293C11.0085 4.8514 11.0556 4.92117 11.0876 4.99812C11.1197 5.07507 11.136 5.15765 11.1356 5.24101C11.1353 5.32437 11.1183 5.40681 11.0856 5.48349C11.0529 5.56016 11.0052 5.62953 10.9453 5.6875L4.43668 12.3055C4.37841 12.3633 4.33209 12.432 4.30038 12.5077C4.26866 12.5834 4.25217 12.6646 4.25184 12.7467C4.25152 12.8288 4.26736 12.9102 4.29847 12.9861C4.32958 13.0621 4.37535 13.1312 4.43317 13.1895C4.49098 13.2477 4.5597 13.294 4.63541 13.3258C4.71113 13.3575 4.79234 13.374 4.87443 13.3743C4.95651 13.3746 5.03786 13.3588 5.11382 13.3277C5.18979 13.2965 5.25888 13.2508 5.31715 13.193L13.0726 5.32812C13.4249 4.97661 13.623 4.49956 13.6235 4.00193C13.6241 3.5043 13.4269 3.02685 13.0754 2.67461C12.7238 2.32237 12.2468 2.12419 11.7492 2.12368C11.2515 2.12317 10.7741 2.32036 10.4218 2.67187L2.66871 10.5375C2.37827 10.8275 2.14778 11.1718 1.99041 11.5509C1.83305 11.93 1.75188 12.3363 1.75156 12.7467C1.75123 13.1572 1.83175 13.5636 1.98851 13.9429C2.14527 14.3223 2.37521 14.667 2.6652 14.9574C2.95518 15.2479 3.29954 15.4784 3.6786 15.6357C4.05766 15.7931 4.464 15.8742 4.87443 15.8746C5.28486 15.8749 5.69133 15.7944 6.07064 15.6376C6.44995 15.4809 6.79467 15.2509 7.08512 14.9609L13.4961 8.55469C13.6137 8.43798 13.7728 8.37275 13.9385 8.37333C14.1042 8.37392 14.2629 8.44027 14.3797 8.55781Z" fill="#424242"/>
</svg>
