<svg width="18" height="22" viewBox="0 0 18 22" fill="none" xmlns="http://www.w3.org/2000/svg">
<path d="M17.0552 18.7457L2.05519 2.24566C1.98932 2.17142 1.90938 2.11099 1.81999 2.06787C1.7306 2.02475 1.63354 1.9998 1.53443 1.99447C1.43533 1.98913 1.33615 2.00353 1.24265 2.03681C1.14915 2.07009 1.06318 2.12159 0.989729 2.18834C0.916281 2.25509 0.856811 2.33576 0.814766 2.42566C0.772721 2.51556 0.748937 2.61291 0.744794 2.71207C0.740651 2.81124 0.756231 2.91023 0.79063 3.00333C0.825029 3.09643 0.877564 3.18177 0.945189 3.25441L4.50019 7.16472V11C4.5003 11.8077 4.71776 12.6004 5.12977 13.2951C5.54178 13.9897 6.13315 14.5607 6.84184 14.9481C7.55052 15.3354 8.3504 15.5249 9.15755 15.4967C9.9647 15.4684 10.7494 15.2235 11.4293 14.7875L12.4493 15.9125C11.5502 16.5441 10.4951 16.9167 9.39883 16.9897C8.30258 17.0627 7.20733 16.8333 6.23252 16.3265C5.25771 15.8197 4.44077 15.055 3.87078 14.1157C3.3008 13.1764 2.99965 12.0987 3.00019 11C3.00019 10.8011 2.92117 10.6104 2.78052 10.4697C2.63987 10.3291 2.4491 10.25 2.25019 10.25C2.05128 10.25 1.86051 10.3291 1.71986 10.4697C1.57921 10.6104 1.50019 10.8011 1.50019 11C1.50247 12.8587 2.19387 14.6504 3.44067 16.0288C4.68747 17.4073 6.4011 18.2744 8.25019 18.4625V20.75C8.25019 20.9489 8.32921 21.1397 8.46986 21.2804C8.61051 21.421 8.80128 21.5 9.00019 21.5C9.1991 21.5 9.38987 21.421 9.53052 21.2804C9.67117 21.1397 9.75019 20.9489 9.75019 20.75V18.4616C11.0953 18.3278 12.379 17.8317 13.4646 17.0263L15.9452 19.7544C16.0111 19.8287 16.091 19.8891 16.1804 19.9322C16.2698 19.9753 16.3668 20.0003 16.4659 20.0056C16.5651 20.0109 16.6642 19.9965 16.7577 19.9633C16.8512 19.93 16.9372 19.8785 17.0106 19.8117C17.0841 19.745 17.1436 19.6643 17.1856 19.5744C17.2277 19.4845 17.2514 19.3872 17.2556 19.288C17.2597 19.1888 17.2441 19.0898 17.2097 18.9967C17.1753 18.9037 17.1228 18.8183 17.0552 18.7457ZM9.00019 14C8.20454 14 7.44148 13.684 6.87887 13.1214C6.31626 12.5587 6.00019 11.7957 6.00019 11V8.81473L10.3989 13.6541C9.96772 13.8813 9.48762 14.0001 9.00019 14ZM5.17144 2.63566C5.68594 1.80254 6.45814 1.15997 7.37089 0.805436C8.28365 0.450906 9.28713 0.403769 10.2291 0.671175C11.1711 0.938582 12.0001 1.50594 12.5904 2.28716C13.1808 3.06839 13.5002 4.02085 13.5002 5.00004V10.6653C13.5002 10.8643 13.4212 11.055 13.2805 11.1957C13.1399 11.3363 12.9491 11.4153 12.7502 11.4153C12.5513 11.4153 12.3605 11.3363 12.2199 11.1957C12.0792 11.055 12.0002 10.8643 12.0002 10.6653V5.00004C12.0005 4.3469 11.7877 3.71148 11.3941 3.19029C11.0005 2.6691 10.4475 2.29062 9.81914 2.11232C9.19081 1.93403 8.52145 1.96566 7.91273 2.20241C7.30401 2.43917 6.78918 2.86811 6.44644 3.4241C6.3965 3.51154 6.32947 3.58803 6.24933 3.649C6.1692 3.70998 6.0776 3.75419 5.98002 3.77901C5.88243 3.80383 5.78084 3.80874 5.68131 3.79345C5.58178 3.77817 5.48635 3.743 5.40071 3.69004C5.31507 3.63708 5.24097 3.56741 5.18283 3.4852C5.12468 3.40298 5.08369 3.3099 5.0623 3.21151C5.0409 3.11311 5.03954 3.01142 5.05829 2.91248C5.07704 2.81355 5.11552 2.7194 5.17144 2.63566ZM14.5914 13.1816C14.8628 12.4863 15.0014 11.7464 15.0002 11C15.0002 10.8011 15.0792 10.6104 15.2199 10.4697C15.3605 10.3291 15.5513 10.25 15.7502 10.25C15.9491 10.25 16.1399 10.3291 16.2805 10.4697C16.4212 10.6104 16.5002 10.8011 16.5002 11C16.5015 11.9331 16.3279 12.8581 15.9883 13.7272C15.954 13.821 15.9013 13.9069 15.8333 13.9801C15.7653 14.0532 15.6834 14.112 15.5924 14.1531C15.5014 14.1941 15.4031 14.2166 15.3033 14.2191C15.2035 14.2217 15.1042 14.2043 15.0112 14.168C14.9182 14.1317 14.8333 14.0771 14.7617 14.0076C14.69 13.9381 14.633 13.8549 14.5939 13.763C14.5548 13.6712 14.5345 13.5724 14.534 13.4726C14.5336 13.3727 14.5531 13.2738 14.5914 13.1816Z" fill="#787887"/>
</svg>
