<svg width="18" height="18" viewBox="0 0 18 18" fill="none" xmlns="http://www.w3.org/2000/svg">
<path d="M16.5 0H1.5C1.10218 0 0.720644 0.158035 0.43934 0.43934C0.158035 0.720644 0 1.10218 0 1.5V16.5C0 16.8978 0.158035 17.2794 0.43934 17.5607C0.720644 17.842 1.10218 18 1.5 18H16.5C16.8978 18 17.2794 17.842 17.5607 17.5607C17.842 17.2794 18 16.8978 18 16.5V1.5C18 1.10218 17.842 0.720644 17.5607 0.43934C17.2794 0.158035 16.8978 0 16.5 0ZM1.5 1.5H16.5V8.75437L14.1853 6.43875C13.904 6.15766 13.5227 5.99976 13.125 5.99976C12.7273 5.99976 12.346 6.15766 12.0647 6.43875L2.00344 16.5H1.5V1.5ZM16.5 16.5H4.125L13.125 7.5L16.5 10.875V16.5ZM6 8.25C6.44501 8.25 6.88002 8.11804 7.25003 7.87081C7.62004 7.62357 7.90843 7.27217 8.07873 6.86104C8.24903 6.4499 8.29358 5.9975 8.20677 5.56105C8.11995 5.12459 7.90566 4.72368 7.59099 4.40901C7.27632 4.09434 6.87541 3.88005 6.43895 3.79323C6.0025 3.70642 5.5501 3.75097 5.13896 3.92127C4.72783 4.09157 4.37643 4.37996 4.12919 4.74997C3.88196 5.11998 3.75 5.55499 3.75 6C3.75 6.59674 3.98705 7.16903 4.40901 7.59099C4.83097 8.01295 5.40326 8.25 6 8.25ZM6 5.25C6.14834 5.25 6.29334 5.29399 6.41668 5.3764C6.54001 5.45881 6.63614 5.57594 6.69291 5.71299C6.74968 5.85003 6.76453 6.00083 6.73559 6.14632C6.70665 6.2918 6.63522 6.42544 6.53033 6.53033C6.42544 6.63522 6.2918 6.70665 6.14632 6.73559C6.00083 6.76453 5.85003 6.74968 5.71299 6.69291C5.57594 6.63614 5.45881 6.54001 5.3764 6.41668C5.29399 6.29334 5.25 6.14834 5.25 6C5.25 5.80109 5.32902 5.61032 5.46967 5.46967C5.61032 5.32902 5.80109 5.25 6 5.25Z" fill="#787887"/>
</svg>
