<svg width="18" height="20" viewBox="0 0 18 20" fill="none" xmlns="http://www.w3.org/2000/svg">
<path d="M16.6553 9.46942C16.725 9.53908 16.7803 9.62179 16.8181 9.71284C16.8558 9.80389 16.8753 9.90149 16.8753 10C16.8753 10.0986 16.8558 10.1962 16.8181 10.2873C16.7803 10.3783 16.725 10.461 16.6553 10.5307L8.9631 18.2182C7.97836 19.2028 6.64281 19.7559 5.25027 19.7558C3.85772 19.7557 2.52225 19.2024 1.53763 18.2177C0.553014 17.233 -8.78825e-05 15.8974 1.04736e-08 14.5049C8.79035e-05 13.1123 0.553359 11.7769 1.5381 10.7922L10.8437 1.34973C11.5468 0.645958 12.5006 0.250284 13.4953 0.249756C14.4901 0.249229 15.4443 0.643891 16.1481 1.34692C16.8519 2.04995 17.2476 3.00376 17.2481 3.99853C17.2486 4.99329 16.8539 5.94752 16.1509 6.6513L6.84341 16.0938C6.42072 16.5165 5.84743 16.754 5.24966 16.754C4.65189 16.754 4.0786 16.5165 3.65591 16.0938C3.23322 15.6711 2.99576 15.0978 2.99576 14.5C2.99576 13.9023 3.23322 13.329 3.65591 12.9063L11.4653 4.97317C11.5337 4.90019 11.616 4.84164 11.7074 4.80095C11.7988 4.76026 11.8974 4.73827 11.9974 4.73625C12.0974 4.73424 12.1968 4.75225 12.2897 4.78923C12.3827 4.82621 12.4673 4.8814 12.5386 4.95157C12.6098 5.02173 12.6664 5.10545 12.7048 5.19779C12.7433 5.29013 12.7629 5.38923 12.7625 5.48926C12.762 5.58929 12.7416 5.68822 12.7024 5.78023C12.6632 5.87225 12.6059 5.95548 12.534 6.02505L4.72372 13.9666C4.6538 14.036 4.59822 14.1185 4.56016 14.2093C4.5221 14.3002 4.50231 14.3976 4.50192 14.4961C4.50153 14.5946 4.52054 14.6922 4.55787 14.7834C4.59521 14.8746 4.65013 14.9575 4.71951 15.0274C4.78888 15.0973 4.87135 15.1529 4.9622 15.191C5.05306 15.229 5.15052 15.2488 5.24902 15.2492C5.34753 15.2496 5.44514 15.2306 5.53629 15.1932C5.62745 15.1559 5.71036 15.101 5.78029 15.0316L15.0868 5.5938C15.5095 5.17198 15.7473 4.59952 15.748 4.00237C15.7486 3.40521 15.5119 2.83227 15.0901 2.40958C14.6683 1.98689 14.0959 1.74908 13.4987 1.74846C12.9015 1.74785 12.3286 1.98448 11.9059 2.4063L2.60216 11.845C2.25363 12.193 1.97704 12.6063 1.7882 13.0611C1.59936 13.516 1.50197 14.0036 1.50158 14.4961C1.50119 14.9886 1.59781 15.4764 1.78592 15.9316C1.97403 16.3868 2.24996 16.8004 2.59794 17.149C2.94593 17.4975 3.35915 17.7741 3.81402 17.9629C4.2689 18.1518 4.75651 18.2491 5.24902 18.2495C5.74154 18.2499 6.2293 18.1533 6.68448 17.9652C7.13965 17.7771 7.55331 17.5012 7.90185 17.1532L15.595 9.46567C15.7361 9.32562 15.9271 9.24734 16.1259 9.24805C16.3247 9.24875 16.5151 9.32838 16.6553 9.46942Z" fill="#787887"/>
</svg>
