<svg width="18" height="18" viewBox="0 0 18 18" fill="none" xmlns="http://www.w3.org/2000/svg">
<path d="M17.1086 13.6351C17.5494 12.7391 17.7691 11.7505 17.7492 10.7522C17.7294 9.75379 17.4707 8.7747 16.9947 7.8969C16.5186 7.01909 15.8392 6.26812 15.0133 5.70686C14.1874 5.14561 13.2391 4.79043 12.2477 4.67105C11.9189 3.90458 11.44 3.21168 10.8392 2.63315C10.2385 2.05463 9.52806 1.60219 8.74976 1.30249C7.97146 1.00279 7.14104 0.861889 6.30744 0.888096C5.47384 0.914304 4.65392 1.10709 3.89598 1.45508C3.13804 1.80308 2.45741 2.29925 1.8942 2.91437C1.331 3.52949 0.896593 4.25111 0.616593 5.03672C0.336593 5.82232 0.216658 6.65602 0.263854 7.48869C0.311051 8.32137 0.524424 9.13618 0.891403 9.88511L0.292965 11.9804C0.239564 12.1679 0.237225 12.3662 0.286189 12.5549C0.335154 12.7435 0.433643 12.9157 0.571466 13.0535C0.709289 13.1913 0.881437 13.2898 1.0701 13.3388C1.25876 13.3877 1.45708 13.3854 1.64453 13.332L3.73984 12.7335C4.37211 13.044 5.05223 13.2455 5.75156 13.3296C6.08491 14.1107 6.57393 14.8155 7.18876 15.4013C7.80359 15.987 8.53133 16.4413 9.32757 16.7365C10.1238 17.0316 10.9718 17.1614 11.8199 17.1179C12.668 17.0744 13.4983 16.8586 14.2602 16.4835L16.3555 17.082C16.5429 17.1354 16.7412 17.1377 16.9299 17.0888C17.1186 17.0398 17.2907 16.9413 17.4285 16.8035C17.5664 16.6657 17.6648 16.4935 17.7138 16.3049C17.7628 16.1162 17.7604 15.9179 17.707 15.7304L17.1086 13.6351ZM3.80703 11.4398C3.74894 11.4398 3.69112 11.4477 3.63515 11.4632L1.57187 12.0531L2.16172 9.9898C2.20592 9.83261 2.18685 9.66436 2.10859 9.52105C1.53391 8.466 1.35867 7.23919 1.61496 6.06544C1.87126 4.89168 2.54193 3.84959 3.50409 3.13011C4.46624 2.41063 5.65544 2.06196 6.85376 2.14798C8.05209 2.234 9.1793 2.74895 10.0288 3.59848C10.8783 4.448 11.3933 5.5752 11.4793 6.77353C11.5653 7.97186 11.2167 9.16106 10.4972 10.1232C9.77771 11.0854 8.73561 11.756 7.56186 12.0123C6.3881 12.2686 5.1613 12.0934 4.10625 11.5187C4.01477 11.4675 3.91183 11.4404 3.80703 11.4398ZM15.8383 13.7398L16.4281 15.8031L14.3648 15.2132C14.2077 15.169 14.0394 15.1881 13.8961 15.2664C12.744 15.8932 11.3918 16.0426 10.1306 15.6826C8.86944 15.3226 7.79997 14.4819 7.15234 13.3414C8.00816 13.2522 8.83633 12.9872 9.58488 12.5629C10.3334 12.1386 10.9862 11.5641 11.5023 10.8756C12.0183 10.1871 12.3865 9.39935 12.5838 8.56181C12.781 7.72427 12.803 6.855 12.6484 6.00855C13.3974 6.18505 14.0954 6.53201 14.6883 7.02243C15.2812 7.51284 15.753 8.13348 16.0668 8.83601C16.3806 9.53855 16.528 10.304 16.4976 11.0729C16.4672 11.8417 16.2597 12.5932 15.8914 13.2687C15.8125 13.4127 15.7934 13.5819 15.8383 13.7398Z" fill="#60606C"/>
</svg>
