<svg width="22" height="22" viewBox="0 0 22 22" fill="none" xmlns="http://www.w3.org/2000/svg">
<path d="M16 11.7504L12 20.7504C11.2044 20.7504 10.4413 20.4343 9.87871 19.8717C9.3161 19.3091 9.00003 18.546 9.00003 17.7504V13.7504H3.34003C3.05012 13.7536 2.76297 13.6939 2.49846 13.5751C2.23395 13.4564 1.99842 13.2816 1.80817 13.0628C1.61793 12.8441 1.47753 12.5865 1.39669 12.3081C1.31586 12.0297 1.29652 11.737 1.34003 11.4504L2.72003 2.45036C2.79235 1.97346 3.0346 1.53875 3.40212 1.22636C3.76965 0.913956 4.2377 0.744909 4.72003 0.750361H16M16 11.7504V0.750361M16 11.7504H18.67C19.236 11.7604 19.7859 11.5622 20.2154 11.1935C20.645 10.8249 20.9242 10.3113 21 9.75036V2.75036C20.9242 2.18942 20.645 1.67586 20.2154 1.30718C19.7859 0.938497 19.236 0.740352 18.67 0.750361H16" stroke="#2C322D" stroke-width="1.5" stroke-linecap="round" stroke-linejoin="round"/>
</svg>
