<svg width="50" height="50" viewBox="0 0 50 50" fill="none" xmlns="http://www.w3.org/2000/svg">
<circle cx="24.875" cy="24.875" r="24.875" fill="#4C4E7E"/>
<path d="M23.5825 36H15.8868V14.2909H23.6461C25.8298 14.2909 27.7095 14.7255 29.2854 15.5947C30.8613 16.4569 32.0732 17.6971 32.9213 19.3154C33.7763 20.9337 34.2039 22.87 34.2039 25.1243C34.2039 27.3856 33.7763 29.329 32.9213 30.9543C32.0732 32.5797 30.8542 33.827 29.2642 34.6962C27.6813 35.5654 25.7874 36 23.5825 36ZM20.4767 32.0673H23.3917C24.7485 32.0673 25.8898 31.8271 26.8156 31.3465C27.7484 30.8589 28.448 30.1063 28.9144 29.0887C29.3879 28.064 29.6246 26.7425 29.6246 25.1243C29.6246 23.5201 29.3879 22.2092 28.9144 21.1916C28.448 20.174 27.7519 19.4249 26.8262 18.9444C25.9004 18.4638 24.7591 18.2236 23.4023 18.2236H20.4767V32.0673Z" fill="#FBFBFE"/>
</svg>
