<svg width="18" height="16" viewBox="0 0 18 16" fill="none" xmlns="http://www.w3.org/2000/svg">
<path d="M17.75 4.6562C17.7513 5.25139 17.6347 5.84094 17.4067 6.39075C17.1787 6.94056 16.844 7.43971 16.4219 7.85933L9.44532 14.939C9.38717 14.9981 9.31785 15.045 9.2414 15.077C9.16495 15.109 9.08289 15.1255 9.00001 15.1255C8.91713 15.1255 8.83508 15.109 8.75863 15.077C8.68218 15.045 8.61285 14.9981 8.5547 14.939L1.57814 7.85933C0.727579 7.0098 0.24933 5.85719 0.248597 4.65506C0.247864 3.45292 0.724709 2.29973 1.57423 1.44917C2.42375 0.598612 3.57636 0.120362 4.7785 0.11963C5.98064 0.118897 7.13383 0.595742 7.98439 1.44526L9.00001 2.39448L10.0227 1.44214C10.6574 0.810567 11.465 0.381205 12.3436 0.208256C13.2221 0.0353083 14.1322 0.126528 14.9589 0.4704C15.7857 0.814271 16.492 1.39538 16.9888 2.14036C17.4855 2.88534 17.7504 3.76079 17.75 4.6562Z" fill="#D81D1D"/>
</svg>
