<svg width="14" height="13" viewBox="0 0 14 13" fill="none" xmlns="http://www.w3.org/2000/svg">
<path d="M13.5 4.12476L13.5 4.1261C13.5009 4.53616 13.4205 4.94233 13.2635 5.32112C13.1064 5.6999 12.8758 6.04379 12.585 6.33289L12.585 6.33287L12.5814 6.33653L7.00012 12.0003L7 12.0004L6.99989 12.0003L1.41864 6.33653L1.41865 6.33652L1.41584 6.33372C0.829221 5.74781 0.499377 4.95287 0.498871 4.12377C0.498366 3.29466 0.827241 2.49932 1.41315 1.9127C1.99905 1.32608 2.794 0.996233 3.6231 0.995728C4.4522 0.995223 5.24754 1.3241 5.83417 1.91L5.84003 1.91587L5.84609 1.92153L6.65859 2.6809L6.99939 2.99942L7.34075 2.68152L8.15888 1.91964L8.16493 1.914L8.1708 1.90817C8.60854 1.4726 9.16551 1.17649 9.77141 1.05721C10.3773 0.93794 11.005 1.00085 11.5751 1.238C12.1453 1.47516 12.6324 1.87592 12.975 2.3897C13.3176 2.90348 13.5003 3.50724 13.5 4.12476Z" stroke="#D81D1D"/>
</svg>
