<svg width="20" height="21" viewBox="0 0 20 21" fill="none" xmlns="http://www.w3.org/2000/svg">
<path d="M11.125 10.5C11.125 10.7225 11.059 10.94 10.9354 11.125C10.8118 11.3101 10.6361 11.4542 10.4305 11.5394C10.225 11.6245 9.99875 11.6468 9.78052 11.6034C9.56229 11.56 9.36184 11.4529 9.2045 11.2955C9.04717 11.1382 8.94002 10.9377 8.89662 10.7195C8.85321 10.5013 8.87549 10.2751 8.96064 10.0695C9.04578 9.86394 9.18998 9.68824 9.37498 9.56463C9.55999 9.44101 9.7775 9.37503 10 9.37503C10.2984 9.37503 10.5845 9.49356 10.7955 9.70453C11.0065 9.91551 11.125 10.2017 11.125 10.5ZM5.875 9.37503C5.6525 9.37503 5.43499 9.44101 5.24998 9.56463C5.06498 9.68824 4.92078 9.86394 4.83564 10.0695C4.75049 10.2751 4.72821 10.5013 4.77162 10.7195C4.81502 10.9377 4.92217 11.1382 5.0795 11.2955C5.23684 11.4529 5.43729 11.56 5.65552 11.6034C5.87375 11.6468 6.09995 11.6245 6.30552 11.5394C6.51109 11.4542 6.68679 11.3101 6.8104 11.125C6.93402 10.94 7 10.7225 7 10.5C7 10.2017 6.88147 9.91551 6.6705 9.70453C6.45952 9.49356 6.17337 9.37503 5.875 9.37503ZM14.125 9.37503C13.9025 9.37503 13.685 9.44101 13.5 9.56463C13.315 9.68824 13.1708 9.86394 13.0856 10.0695C13.0005 10.2751 12.9782 10.5013 13.0216 10.7195C13.065 10.9377 13.1722 11.1382 13.3295 11.2955C13.4868 11.4529 13.6873 11.56 13.9055 11.6034C14.1238 11.6468 14.35 11.6245 14.5555 11.5394C14.7611 11.4542 14.9368 11.3101 15.0604 11.125C15.184 10.94 15.25 10.7225 15.25 10.5C15.25 10.2017 15.1315 9.91551 14.9205 9.70453C14.7095 9.49356 14.4234 9.37503 14.125 9.37503ZM19.75 10.5C19.7504 12.1833 19.3149 13.8381 18.486 15.3032C17.6572 16.7683 16.4631 17.9938 15.02 18.8605C13.577 19.7272 11.9341 20.2055 10.2514 20.2489C8.56863 20.2923 6.9033 19.8993 5.4175 19.1082L2.22531 20.1722C1.96102 20.2604 1.6774 20.2731 1.40624 20.2092C1.13509 20.1452 0.887113 20.0069 0.69011 19.8099C0.493108 19.6129 0.354864 19.3649 0.290873 19.0938C0.226882 18.8226 0.239673 18.539 0.327812 18.2747L1.39187 15.0825C0.696389 13.7749 0.307935 12.3261 0.255998 10.8459C0.20406 9.3658 0.490005 7.89328 1.09213 6.54015C1.69425 5.18703 2.59672 3.98885 3.73105 3.03658C4.86537 2.08431 6.20173 1.40298 7.63869 1.04429C9.07565 0.685598 10.5754 0.658985 12.0242 0.966468C13.473 1.27395 14.8327 1.90745 16.0001 2.81888C17.1675 3.7303 18.1119 4.8957 18.7616 6.22662C19.4114 7.55753 19.7494 9.01898 19.75 10.5ZM18.25 10.5C18.2496 9.23452 17.9582 7.98606 17.3981 6.85123C16.838 5.7164 16.0244 4.72562 15.0201 3.95556C14.0159 3.1855 12.8479 2.65678 11.6067 2.41033C10.3654 2.16388 9.08405 2.20628 7.86178 2.53428C6.63951 2.86227 5.50909 3.46705 4.55796 4.30183C3.60682 5.13662 2.86049 6.17902 2.37668 7.3484C1.89288 8.51778 1.68458 9.78279 1.7679 11.0455C1.85122 12.3083 2.22393 13.535 2.85719 14.6307C2.91034 14.7226 2.94334 14.8249 2.954 14.9306C2.96467 15.0363 2.95276 15.143 2.91906 15.2438L1.75 18.75L5.25625 17.581C5.33262 17.5549 5.41275 17.5416 5.49344 17.5416C5.62516 17.5418 5.7545 17.5767 5.86844 17.6428C7.12263 18.3685 8.54581 18.751 9.99479 18.7519C11.4438 18.7528 12.8674 18.3721 14.1225 17.6481C15.3776 16.924 16.4199 15.8821 17.1445 14.6273C17.869 13.3725 18.2503 11.949 18.25 10.5Z" fill="#60606C"/>
</svg>
