<svg width="28" height="24" viewBox="0 0 28 24" fill="none" xmlns="http://www.w3.org/2000/svg">
<path d="M16 8C16 7.60444 16.1173 7.21776 16.3371 6.88886C16.5568 6.55996 16.8692 6.30362 17.2346 6.15224C17.6001 6.00087 18.0022 5.96126 18.3902 6.03843C18.7781 6.1156 19.1345 6.30608 19.4142 6.58579C19.6939 6.86549 19.8844 7.22186 19.9616 7.60982C20.0387 7.99778 19.9991 8.39991 19.8478 8.76537C19.6964 9.13082 19.44 9.44318 19.1111 9.66294C18.7822 9.8827 18.3956 10 18 10C17.4696 10 16.9609 9.78929 16.5858 9.41421C16.2107 9.03914 16 8.53043 16 8ZM27.5 3V21C27.5 21.663 27.2366 22.2989 26.7678 22.7678C26.2989 23.2366 25.663 23.5 25 23.5H3C2.33696 23.5 1.70107 23.2366 1.23223 22.7678C0.763392 22.2989 0.5 21.663 0.5 21V3C0.5 2.33696 0.763392 1.70107 1.23223 1.23223C1.70107 0.763392 2.33696 0.5 3 0.5H25C25.663 0.5 26.2989 0.763392 26.7678 1.23223C27.2366 1.70107 27.5 2.33696 27.5 3ZM3.5 3.5V13.465L7.7325 9.2325C8.20132 8.76382 8.83709 8.50053 9.5 8.50053C10.1629 8.50053 10.7987 8.76382 11.2675 9.2325L16.4137 14.375L18.5613 12.2288C19.0301 11.7601 19.6658 11.4968 20.3288 11.4968C20.9917 11.4968 21.6274 11.7601 22.0963 12.2288L24.5 14.6362V3.5H3.5ZM3.5 20.5H18.2925L9.5 11.7075L3.5 17.7075V20.5ZM24.5 20.5V18.875L20.3288 14.7038L18.535 16.5L22.535 20.5H24.5Z" fill="#93939F"/>
</svg>
