<svg width="20" height="20" viewBox="0 0 20 20" fill="none" xmlns="http://www.w3.org/2000/svg">
<path d="M19.5306 18.4696L14.8366 13.7765C16.1971 12.1431 16.8755 10.048 16.7307 7.92715C16.5859 5.80629 15.629 3.82289 14.0591 2.38956C12.4892 0.956234 10.4272 0.183327 8.30191 0.231627C6.17666 0.279927 4.15184 1.14571 2.64867 2.64888C1.1455 4.15205 0.279713 6.17687 0.231413 8.30213C0.183113 10.4274 0.95602 12.4894 2.38935 14.0593C3.82268 15.6293 5.80607 16.5861 7.92694 16.7309C10.0478 16.8757 12.1429 16.1973 13.7763 14.8368L18.4694 19.5308C18.5391 19.6005 18.6218 19.6558 18.7128 19.6935C18.8039 19.7312 18.9015 19.7506 19 19.7506C19.0985 19.7506 19.1961 19.7312 19.2872 19.6935C19.3782 19.6558 19.4609 19.6005 19.5306 19.5308C19.6003 19.4612 19.6556 19.3784 19.6933 19.2874C19.731 19.1963 19.7504 19.0988 19.7504 19.0002C19.7504 18.9017 19.731 18.8041 19.6933 18.713C19.6556 18.622 19.6003 18.5393 19.5306 18.4696ZM1.75 8.50021C1.75 7.16519 2.14588 5.86015 2.88758 4.75011C3.62928 3.64008 4.68349 2.77492 5.91689 2.26403C7.15029 1.75314 8.50749 1.61946 9.81686 1.87991C11.1262 2.14036 12.329 2.78324 13.273 3.72724C14.217 4.67125 14.8599 5.87398 15.1203 7.18335C15.3808 8.49273 15.2471 9.84993 14.7362 11.0833C14.2253 12.3167 13.3601 13.3709 12.2501 14.1126C11.1401 14.8543 9.83502 15.2502 8.5 15.2502C6.7104 15.2482 4.99466 14.5364 3.72922 13.271C2.46378 12.0056 1.75199 10.2898 1.75 8.50021Z" fill="#DFDFF7"/>
</svg>
