<svg width="103" height="79" viewBox="0 0 103 79" fill="none" xmlns="http://www.w3.org/2000/svg">
<rect x="0.5" y="0.5" width="102" height="78" rx="3.5" fill="#F5FCFF"/>
<rect x="0.5" y="0.5" width="102" height="78" rx="3.5" stroke="#00ADEF"/>
<path d="M64 40C64 40.2652 63.8946 40.5196 63.7071 40.7071C63.5196 40.8946 63.2652 41 63 41H53V51C53 51.2652 52.8946 51.5196 52.7071 51.7071C52.5196 51.8946 52.2652 52 52 52C51.7348 52 51.4804 51.8946 51.2929 51.7071C51.1054 51.5196 51 51.2652 51 51V41H41C40.7348 41 40.4804 40.8946 40.2929 40.7071C40.1054 40.5196 40 40.2652 40 40C40 39.7348 40.1054 39.4804 40.2929 39.2929C40.4804 39.1054 40.7348 39 41 39H51V29C51 28.7348 51.1054 28.4804 51.2929 28.2929C51.4804 28.1054 51.7348 28 52 28C52.2652 28 52.5196 28.1054 52.7071 28.2929C52.8946 28.4804 53 28.7348 53 29V39H63C63.2652 39 63.5196 39.1054 63.7071 39.2929C63.8946 39.4804 64 39.7348 64 40Z" fill="#00ADEF"/>
</svg>
