<svg width="20" height="20" viewBox="0 0 20 20" fill="none" xmlns="http://www.w3.org/2000/svg">
<path d="M17.9422 8.56729L14.1922 12.3173C14.0749 12.4346 13.9159 12.5005 13.75 12.5005C13.5841 12.5005 13.4251 12.4346 13.3078 12.3173C13.1905 12.2 13.1247 12.041 13.1247 11.8751C13.1247 11.7093 13.1905 11.5502 13.3078 11.4329L15.9914 8.7501H12.8906C11.3661 8.74968 9.88475 9.25597 8.67941 10.1894C7.47407 11.1227 6.61315 12.4303 6.23203 13.9064C6.19059 14.0669 6.08706 14.2045 5.94421 14.2887C5.80136 14.373 5.63089 14.397 5.47031 14.3556C5.30973 14.3141 5.17219 14.2106 5.08795 14.0677C5.0037 13.9249 4.97965 13.7544 5.02109 13.5939C5.47079 11.849 6.48809 10.3032 7.91281 9.19997C9.33752 8.09675 11.0887 7.49874 12.8906 7.5001H15.993L13.3078 4.81729C13.2497 4.75922 13.2037 4.69028 13.1723 4.61441C13.1408 4.53854 13.1247 4.45723 13.1247 4.3751C13.1247 4.29298 13.1408 4.21166 13.1723 4.13579C13.2037 4.05992 13.2497 3.99098 13.3078 3.93292C13.4251 3.81564 13.5841 3.74976 13.75 3.74976C13.8321 3.74976 13.9134 3.76593 13.9893 3.79736C14.0652 3.82878 14.1341 3.87485 14.1922 3.93292L17.9422 7.68292C18.0003 7.74096 18.0464 7.80989 18.0779 7.88577C18.1093 7.96164 18.1255 8.04297 18.1255 8.1251C18.1255 8.20724 18.1093 8.28857 18.0779 8.36444C18.0464 8.44031 18.0003 8.50925 17.9422 8.56729ZM15 16.2501H3.125V6.8751C3.125 6.70934 3.05915 6.55037 2.94194 6.43316C2.82473 6.31595 2.66576 6.2501 2.5 6.2501C2.33424 6.2501 2.17527 6.31595 2.05806 6.43316C1.94085 6.55037 1.875 6.70934 1.875 6.8751V16.2501C1.875 16.5816 2.0067 16.8996 2.24112 17.134C2.47554 17.3684 2.79348 17.5001 3.125 17.5001H15C15.1658 17.5001 15.3247 17.4343 15.4419 17.317C15.5592 17.1998 15.625 17.0409 15.625 16.8751C15.625 16.7093 15.5592 16.5504 15.4419 16.4332C15.3247 16.316 15.1658 16.2501 15 16.2501Z" fill="#60606C"/>
</svg>
