<svg width="24" height="25" viewBox="0 0 24 25" fill="none" xmlns="http://www.w3.org/2000/svg">
<path d="M7 11.75L11 2.75C11.7956 2.75 12.5587 3.06607 13.1213 3.62868C13.6839 4.19129 14 4.95435 14 5.75V9.75H19.66C19.9499 9.74672 20.2371 9.8065 20.5016 9.92522C20.7661 10.0439 21.0016 10.2187 21.1919 10.4375C21.3821 10.6563 21.5225 10.9138 21.6033 11.1923C21.6842 11.4707 21.7035 11.7634 21.66 12.05L20.28 21.05C20.2077 21.5269 19.9654 21.9616 19.5979 22.274C19.2304 22.5864 18.7623 22.7555 18.28 22.75H7M7 11.75V22.75M7 11.75H4C3.46957 11.75 2.96086 11.9607 2.58579 12.3358C2.21071 12.7109 2 13.2196 2 13.75V20.75C2 21.2804 2.21071 21.7891 2.58579 22.1642C2.96086 22.5393 3.46957 22.75 4 22.75H7" stroke="#2C322D" stroke-width="1.5" stroke-linecap="round" stroke-linejoin="round"/>
</svg>
