<svg width="24" height="15" viewBox="0 0 24 15" fill="none" xmlns="http://www.w3.org/2000/svg">
<path d="M10.9922 10.305C11.9974 9.63577 12.7605 8.66085 13.1688 7.52439C13.577 6.38792 13.6087 5.15024 13.2592 3.99437C12.9096 2.8385 12.1973 1.82581 11.2277 1.10605C10.2581 0.386294 9.08256 -0.00231934 7.87499 -0.00231934C6.66741 -0.00231934 5.4919 0.386294 4.52227 1.10605C3.55264 1.82581 2.84039 2.8385 2.49082 3.99437C2.14126 5.15024 2.17295 6.38792 2.5812 7.52439C2.98946 8.66085 3.75261 9.63577 4.7578 10.305C2.93951 10.9751 1.38665 12.2152 0.330923 13.8403C0.275438 13.9227 0.236898 14.0154 0.217543 14.1129C0.198188 14.2104 0.198405 14.3108 0.21818 14.4082C0.237956 14.5056 0.276896 14.5981 0.332737 14.6803C0.388577 14.7625 0.460205 14.8328 0.543457 14.8871C0.626708 14.9414 0.719922 14.9787 0.817681 14.9966C0.915439 15.0146 1.01579 15.0129 1.11291 14.9917C1.21002 14.9706 1.30196 14.9303 1.38338 14.8733C1.4648 14.8163 1.53407 14.7437 1.58717 14.6597C2.26816 13.6123 3.20001 12.7516 4.29808 12.1558C5.39616 11.5599 6.62568 11.2479 7.87499 11.2479C9.12429 11.2479 10.3538 11.5599 11.4519 12.1558C12.55 12.7516 13.4818 13.6123 14.1628 14.6597C14.2728 14.8231 14.4427 14.9368 14.6358 14.976C14.829 15.0152 15.0297 14.9768 15.1948 14.8692C15.3598 14.7615 15.4759 14.5932 15.5179 14.4007C15.5598 14.2082 15.5243 14.0068 15.419 13.8403C14.3633 12.2152 12.8105 10.9751 10.9922 10.305ZM3.74999 5.62496C3.74999 4.80911 3.99191 4.01159 4.44517 3.33324C4.89843 2.65488 5.54267 2.12617 6.29642 1.81396C7.05016 1.50175 7.87956 1.42006 8.67973 1.57922C9.47991 1.73839 10.2149 2.13126 10.7918 2.70815C11.3687 3.28504 11.7616 4.02004 11.9207 4.82022C12.0799 5.62039 11.9982 6.44979 11.686 7.20353C11.3738 7.95728 10.8451 8.60151 10.1667 9.05477C9.48836 9.50804 8.69083 9.74996 7.87499 9.74996C6.78135 9.74872 5.73286 9.31373 4.95954 8.54041C4.18622 7.76709 3.75123 6.7186 3.74999 5.62496ZM23.4506 14.8781C23.284 14.9867 23.0811 15.0247 22.8865 14.9838C22.6919 14.9428 22.5215 14.8262 22.4128 14.6597C21.7326 13.6116 20.8009 12.7506 19.7026 12.155C18.6043 11.5594 17.3744 11.2483 16.125 11.25C15.9261 11.25 15.7353 11.1709 15.5947 11.0303C15.454 10.8896 15.375 10.6989 15.375 10.5C15.375 10.3011 15.454 10.1103 15.5947 9.96963C15.7353 9.82898 15.9261 9.74996 16.125 9.74996C16.7325 9.74939 17.3323 9.61465 17.8817 9.35538C18.431 9.09611 18.9163 8.7187 19.3029 8.25013C19.6895 7.78155 19.9679 7.23337 20.1181 6.64475C20.2682 6.05614 20.2866 5.44162 20.1717 4.8451C20.0569 4.24859 19.8117 3.6848 19.4537 3.19402C19.0957 2.70325 18.6337 2.2976 18.1008 2.00606C17.5678 1.71452 16.9771 1.54429 16.3707 1.50752C15.7644 1.47076 15.1574 1.56838 14.5931 1.7934C14.5011 1.83317 14.4021 1.8541 14.3018 1.85495C14.2016 1.85579 14.1022 1.83654 14.0096 1.79833C13.9169 1.76012 13.8329 1.70373 13.7624 1.63248C13.6919 1.56123 13.6364 1.47658 13.5992 1.38352C13.5619 1.29046 13.5437 1.19088 13.5456 1.09067C13.5476 0.990458 13.5695 0.891647 13.6103 0.800074C13.651 0.708502 13.7097 0.626025 13.7829 0.557517C13.856 0.48901 13.9422 0.435862 14.0362 0.401213C15.3276 -0.113802 16.764 -0.132335 18.0682 0.349188C19.3724 0.830711 20.4521 1.77817 21.099 3.00879C21.7459 4.23941 21.9141 5.66599 21.5712 7.01332C21.2283 8.36066 20.3986 9.53327 19.2422 10.305C21.0605 10.9751 22.6133 12.2152 23.669 13.8403C23.7777 14.0069 23.8157 14.2098 23.7747 14.4044C23.7338 14.599 23.6172 14.7694 23.4506 14.8781Z" fill="#60606C"/>
</svg>
