<svg width="30" height="24" viewBox="0 0 30 24" fill="none" xmlns="http://www.w3.org/2000/svg">
<path d="M29.4713 5.12496C29.3118 5.03949 29.1321 4.99888 28.9514 5.00746C28.7707 5.01605 28.5956 5.07351 28.445 5.17371L24 8.13121V4.99996C24 4.46953 23.7893 3.96082 23.4142 3.58575C23.0391 3.21068 22.5304 2.99996 22 2.99996H12.1325C11.8673 2.99996 11.6129 3.10532 11.4254 3.29286C11.2379 3.48039 11.1325 3.73475 11.1325 3.99996C11.1325 4.26518 11.2379 4.51953 11.4254 4.70707C11.6129 4.8946 11.8673 4.99996 12.1325 4.99996H22V15.9537C22 16.2189 22.1054 16.4733 22.2929 16.6608C22.4804 16.8484 22.7348 16.9537 23 16.9537C23.2652 16.9537 23.5196 16.8484 23.7071 16.6608C23.8946 16.4733 24 16.2189 24 15.9537V15.875L28.445 18.8387C28.6101 18.9459 28.8032 19.002 29 19C29.2652 19 29.5196 18.8946 29.7071 18.7071C29.8946 18.5195 30 18.2652 30 18V5.99996C29.9987 5.82003 29.949 5.64378 29.8559 5.48978C29.7628 5.33579 29.63 5.20975 29.4713 5.12496ZM28 16.1312L24 13.465V10.535L28 7.87496V16.1312ZM4.74 0.327462C4.65218 0.22847 4.54559 0.147893 4.4264 0.0903997C4.30721 0.0329068 4.1778 -0.000358237 4.04566 -0.00746709C3.91352 -0.0145759 3.78128 0.00461253 3.65661 0.0489864C3.53194 0.0933602 3.41732 0.162037 3.31939 0.251036C3.22146 0.340034 3.14216 0.447586 3.0861 0.567455C3.03004 0.687325 2.99833 0.817129 2.99281 0.949345C2.98728 1.08156 3.00806 1.21356 3.05392 1.33769C3.09979 1.46181 3.16983 1.5756 3.26 1.67246L4.46625 2.99996H2C1.46957 2.99996 0.960859 3.21068 0.585786 3.58575C0.210714 3.96082 0 4.46953 0 4.99996V19C0 19.5304 0.210714 20.0391 0.585786 20.4142C0.960859 20.7892 1.46957 21 2 21H20.83L23.26 23.6725C23.3478 23.7715 23.4544 23.852 23.5736 23.9095C23.6928 23.967 23.8222 24.0003 23.9543 24.0074C24.0865 24.0145 24.2187 23.9953 24.3434 23.9509C24.4681 23.9066 24.5827 23.8379 24.6806 23.7489C24.7785 23.6599 24.8578 23.5523 24.9139 23.4325C24.97 23.3126 25.0017 23.1828 25.0072 23.0506C25.0127 22.9184 24.9919 22.7864 24.9461 22.6622C24.9002 22.5381 24.8302 22.4243 24.74 22.3275L4.74 0.327462ZM2 19V4.99996H6.285L19.0125 19H2Z" fill="#60606C"/>
</svg>
