<svg width="22" height="22" viewBox="0 0 22 22" fill="none" xmlns="http://www.w3.org/2000/svg">
<path d="M11 0.875C8.99747 0.875 7.0399 1.46882 5.37486 2.58137C3.70981 3.69392 2.41206 5.27523 1.64572 7.12533C0.879387 8.97543 0.678878 11.0112 1.06955 12.9753C1.46023 14.9393 2.42454 16.7435 3.84055 18.1595C5.25656 19.5755 7.06066 20.5398 9.02471 20.9305C10.9888 21.3211 13.0246 21.1206 14.8747 20.3543C16.7248 19.5879 18.3061 18.2902 19.4186 16.6251C20.5312 14.9601 21.125 13.0025 21.125 11C21.122 8.3156 20.0543 5.74199 18.1562 3.84383C16.258 1.94567 13.6844 0.877978 11 0.875ZM11 18.875C9.44248 18.875 7.91993 18.4131 6.62489 17.5478C5.32985 16.6825 4.32049 15.4526 3.72445 14.0136C3.12841 12.5747 2.97246 10.9913 3.27632 9.46366C3.58018 7.93606 4.3302 6.53287 5.43154 5.43153C6.53288 4.3302 7.93607 3.58017 9.46367 3.27632C10.9913 2.97246 12.5747 3.12841 14.0136 3.72445C15.4526 4.32049 16.6825 5.32985 17.5478 6.62488C18.4131 7.91992 18.875 9.44247 18.875 11C18.8728 13.0879 18.0424 15.0896 16.566 16.566C15.0896 18.0424 13.0879 18.8728 11 18.875ZM6.125 9.125C6.125 8.82833 6.21298 8.53832 6.3778 8.29165C6.54262 8.04497 6.77689 7.85271 7.05098 7.73918C7.32507 7.62565 7.62667 7.59594 7.91764 7.65382C8.20861 7.7117 8.47589 7.85456 8.68566 8.06434C8.89544 8.27412 9.0383 8.54139 9.09618 8.83236C9.15406 9.12334 9.12436 9.42494 9.01082 9.69903C8.89729 9.97311 8.70503 10.2074 8.45836 10.3722C8.21169 10.537 7.92168 10.625 7.625 10.625C7.22718 10.625 6.84565 10.467 6.56434 10.1857C6.28304 9.90436 6.125 9.52282 6.125 9.125ZM16.625 9.125C16.625 9.42337 16.5065 9.70952 16.2955 9.9205C16.0845 10.1315 15.7984 10.25 15.5 10.25H13.25C12.9516 10.25 12.6655 10.1315 12.4545 9.9205C12.2435 9.70952 12.125 9.42337 12.125 9.125C12.125 8.82663 12.2435 8.54048 12.4545 8.3295C12.6655 8.11853 12.9516 8 13.25 8H15.5C15.7984 8 16.0845 8.11853 16.2955 8.3295C16.5065 8.54048 16.625 8.82663 16.625 9.125ZM15.7241 13.8125C14.6928 15.5994 12.9688 16.625 11 16.625C9.03125 16.625 7.31 15.6003 6.27594 13.8125C6.13319 13.5546 6.0974 13.2509 6.17627 12.9668C6.25514 12.6827 6.44237 12.441 6.69767 12.2935C6.95298 12.1461 7.25595 12.1048 7.54141 12.1785C7.82687 12.2521 8.072 12.4349 8.22407 12.6875C8.58875 13.3184 9.43438 14.375 11 14.375C12.5656 14.375 13.4113 13.3175 13.7759 12.6875C13.8483 12.5567 13.946 12.4417 14.0633 12.3491C14.1807 12.2565 14.3153 12.1882 14.4593 12.1482C14.6033 12.1083 14.7539 12.0974 14.9021 12.1162C15.0504 12.1351 15.1934 12.1833 15.3229 12.258C15.4523 12.3328 15.5655 12.4325 15.656 12.5515C15.7464 12.6705 15.8122 12.8064 15.8496 12.9511C15.8869 13.0958 15.8951 13.2465 15.8735 13.3944C15.852 13.5423 15.8012 13.6845 15.7241 13.8125Z" fill="#00ADEF"/>
</svg>
